# xmcd
#
# Track frame offsets:
#	150
#	18175
#	36410
#	58107
#	76590
#	78125
#	96752
#	118330
#	138095
#	147740
#	166302
#	186220
#	205902
#	226875
#
# Disc length: 3248 seconds
#
# Revision: 0
# Processed by: cddbd v1.5.2PL0 Copyright (c) Steve Scherf et al.
# Submitted via: EasyCDDAExtractor 12.0.1.1
#
DISCID=b60cae0e
DTITLE=Total Touch - This Way
DYEAR=1998
DGENRE=
TTITLE0=Back In The Groove
TTITLE1=I'll Say Goodbye
TTITLE2=Here 'N' Now
TTITLE3=Love Me In Slow Motion
TTITLE4=Prelude Of Truth
TTITLE5=Moment Of Truth
TTITLE6=I Will Stay Around
TTITLE7=Ego
TTITLE8=Train-Cha's Dream Interlude
TTITLE9=Someone Like You
TTITLE10=Do You Mind
TTITLE11=This Way
TTITLE12=Forgive Won't Forget
TTITLE13=Endlessly
EXTD=
EXTT0=
EXTT1=
EXTT2=
EXTT3=
EXTT4=
EXTT5=
EXTT6=
EXTT7=
EXTT8=
EXTT9=
EXTT10=
EXTT11=
EXTT12=
EXTT13=
PLAYORDER=
